<svg width="138" height="138" viewBox="0 0 138 138" fill="none" xmlns="http://www.w3.org/2000/svg">
<path d="M0 0H138V138H0V0Z" fill="#AD1E1E"/>
<path d="M29.7579 42.28C28.3072 42.28 27.1765 42.8347 26.3659 43.944C25.5765 45.0533 25.1819 46.984 25.1819 49.736C25.1819 55.0053 26.6325 57.64 29.5339 57.64C30.6859 57.64 31.7099 57.4587 32.6059 57.096V53.48C31.6245 53.16 30.9525 52.7653 30.5899 52.296L30.9099 49.768H38.3979L38.7179 52.296C38.4405 52.6373 37.9392 52.968 37.2139 53.288V59.208C36.1899 59.9547 35.0592 60.488 33.8219 60.808C32.6059 61.1067 31.0805 61.256 29.2459 61.256C26.1952 61.256 23.9552 60.392 22.5259 58.664C21.0965 56.9147 20.3819 54.088 20.3819 50.184C20.3819 46.2587 21.2245 43.3573 22.9099 41.48C24.6165 39.6027 26.9419 38.664 29.8859 38.664C32.8512 38.664 35.2725 39.336 37.1499 40.68C37.1499 40.808 37.1499 41.0533 37.1499 41.416C37.1499 41.7787 37.0752 42.3973 36.9259 43.272C36.7765 44.1467 36.5632 44.8613 36.2859 45.416H33.3419C33.0219 44.8187 32.8085 43.9333 32.7019 42.76C31.7845 42.44 30.8032 42.28 29.7579 42.28ZM40.7376 47.368C40.7376 47.048 40.7483 46.7067 40.7696 46.344C42.7536 45.2773 44.887 44.744 47.1696 44.744C49.4523 44.744 51.0843 45.1813 52.0656 46.056C53.0683 46.9093 53.5696 48.3387 53.5696 50.344V57.16C54.3163 57.3093 54.903 57.4907 55.3296 57.704V60.488C54.2416 61 52.6843 61.256 50.6576 61.256C50.4443 60.7013 50.263 60.0293 50.1136 59.24C49.1963 60.584 47.5323 61.256 45.1216 61.256C43.6923 61.256 42.4656 60.84 41.4416 60.008C40.439 59.176 39.9376 58.0453 39.9376 56.616C39.9376 55.1867 40.407 54.0667 41.3456 53.256C42.3056 52.424 43.7243 52.008 45.6016 52.008H49.0896V50.472C49.0896 48.808 48.2043 47.976 46.4336 47.976C45.7723 47.976 45.2283 48.04 44.8016 48.168C44.759 49.064 44.631 49.7573 44.4176 50.248H41.2816C40.919 49.5013 40.7376 48.5413 40.7376 47.368ZM46.4976 57.992C47.5856 57.992 48.4496 57.672 49.0896 57.032V54.408H46.8496C45.3136 54.408 44.5456 54.9947 44.5456 56.168C44.5456 56.7013 44.7056 57.1387 45.0256 57.48C45.367 57.8213 45.8576 57.992 46.4976 57.992ZM56.4086 38.28C57.6033 38.0027 58.7126 37.864 59.7366 37.864C60.7606 37.864 61.6246 37.896 62.3286 37.96V57.448C63.1606 57.768 63.7473 58.1307 64.0886 58.536L63.7686 61H56.4086L56.0886 58.536C56.3873 58.1307 56.974 57.768 57.8486 57.448V41.832C57.102 41.576 56.5153 41.2133 56.0886 40.744L56.4086 38.28ZM65.3461 38.28C66.5408 38.0027 67.6501 37.864 68.6741 37.864C69.6981 37.864 70.5621 37.896 71.2661 37.96V57.448C72.0981 57.768 72.6848 58.1307 73.0261 58.536L72.7061 61H65.3461L65.0261 58.536C65.3248 58.1307 65.9115 57.768 66.7861 57.448V41.832C66.0395 41.576 65.4528 41.2133 65.0261 40.744L65.3461 38.28ZM82.0276 61.256C79.4676 61.256 77.537 60.5733 76.2356 59.208C74.9556 57.8427 74.3156 55.8587 74.3156 53.256C74.3156 51.6773 74.5396 50.3227 74.9876 49.192C75.4356 48.04 76.0436 47.1547 76.8116 46.536C78.305 45.3413 80.0436 44.744 82.0276 44.744C84.0116 44.744 85.5263 45.256 86.5716 46.28C87.6383 47.2827 88.1716 49.096 88.1716 51.72C88.1716 53.256 87.4143 54.024 85.8996 54.024H78.9556C79.041 55.368 79.3823 56.3173 79.9796 56.872C80.5983 57.4267 81.569 57.704 82.8916 57.704C83.617 57.704 84.3103 57.6187 84.9716 57.448C85.633 57.2773 86.113 57.1067 86.4116 56.936L86.8596 56.68L87.8196 59.24C87.6916 59.3893 87.4996 59.5813 87.2436 59.816C87.009 60.0293 86.3903 60.328 85.3876 60.712C84.4063 61.0747 83.2863 61.256 82.0276 61.256ZM84.0436 51.176C84.0863 50.8773 84.1076 50.5147 84.1076 50.088C84.1076 49.6613 83.937 49.2133 83.5956 48.744C83.2543 48.2533 82.657 48.008 81.8036 48.008C80.9716 48.008 80.3316 48.264 79.8836 48.776C79.4356 49.288 79.137 50.152 78.9876 51.368L84.0436 51.176ZM99.4164 48.936C97.795 48.936 96.675 49.2453 96.0564 49.864V57.192C97.7844 57.512 98.9684 57.96 99.6084 58.536L99.2884 61H90.1364L89.8164 58.536C90.115 58.1307 90.7017 57.768 91.5764 57.448V48.552C90.8297 48.296 90.243 47.9333 89.8164 47.464L90.1364 45C91.3097 44.744 92.3657 44.616 93.3044 44.616C94.243 44.616 95.0217 44.6373 95.6404 44.68V46.696C96.131 46.12 96.7604 45.6507 97.5284 45.288C98.2964 44.904 98.9897 44.712 99.6084 44.712C100.248 44.712 100.686 44.7653 100.92 44.872L100.824 49.032C100.398 48.968 99.9284 48.936 99.4164 48.936ZM106.543 64.712C106.927 64.712 107.332 64.3493 107.759 63.624C108.207 62.92 108.516 62.0773 108.687 61.096L103.439 48.68C102.393 48.3387 101.689 47.9333 101.327 47.464L101.647 45H109.007L109.327 47.464C109.049 47.8053 108.58 48.1147 107.919 48.392L109.679 53.224C110.063 54.2267 110.329 55.2187 110.479 56.2L110.575 56.648H111.023C111.193 55.5813 111.492 54.4613 111.919 53.288L113.615 48.552C112.825 48.2533 112.271 47.8907 111.951 47.464L112.271 45H119.311L119.631 47.464C119.247 47.9547 118.543 48.3707 117.519 48.712L112.239 61.192C111.236 63.56 110.468 65.0853 109.935 65.768C108.996 67.0267 107.684 67.656 105.999 67.656C104.335 67.656 103.065 67.2187 102.191 66.344C102.169 66.1307 102.159 65.9173 102.159 65.704C102.159 64.5307 102.404 63.4213 102.895 62.376H105.551C105.871 62.952 106.052 63.7307 106.095 64.712H106.543ZM30.5196 91H22.3596L22.0396 88.344C22.317 87.9813 22.9036 87.6293 23.7996 87.288V72.664C22.925 72.344 22.3383 71.9813 22.0396 71.576L22.3596 68.92H29.4956C32.9303 68.92 35.6503 69.88 37.6556 71.8C39.6823 73.72 40.6956 76.5467 40.6956 80.28C40.6956 83.992 39.7783 86.712 37.9436 88.44C36.1303 90.1467 33.6556 91 30.5196 91ZM28.4076 87.512H30.7116C32.3116 87.512 33.5703 87.032 34.4876 86.072C35.4263 85.0907 35.8956 83.2027 35.8956 80.408C35.8956 75.0747 33.8796 72.408 29.8476 72.408H28.4076V87.512ZM50.0901 91.256C47.5301 91.256 45.5995 90.5733 44.2981 89.208C43.0181 87.8427 42.3781 85.8587 42.3781 83.256C42.3781 81.6773 42.6021 80.3227 43.0501 79.192C43.4981 78.04 44.1061 77.1547 44.8741 76.536C46.3675 75.3413 48.1061 74.744 50.0901 74.744C52.0741 74.744 53.5888 75.256 54.6341 76.28C55.7008 77.2827 56.2341 79.096 56.2341 81.72C56.2341 83.256 55.4768 84.024 53.9621 84.024H47.0181C47.1035 85.368 47.4448 86.3173 48.0421 86.872C48.6608 87.4267 49.6315 87.704 50.9541 87.704C51.6795 87.704 52.3728 87.6187 53.0341 87.448C53.6955 87.2773 54.1755 87.1067 54.4741 86.936L54.9221 86.68L55.8821 89.24C55.7541 89.3893 55.5621 89.5813 55.3061 89.816C55.0715 90.0293 54.4528 90.328 53.4501 90.712C52.4688 91.0747 51.3488 91.256 50.0901 91.256ZM52.1061 81.176C52.1488 80.8773 52.1701 80.5147 52.1701 80.088C52.1701 79.6613 51.9995 79.2133 51.6581 78.744C51.3168 78.2533 50.7195 78.008 49.8661 78.008C49.0341 78.008 48.3941 78.264 47.9461 78.776C47.4981 79.288 47.1995 80.152 47.0501 81.368L52.1061 81.176ZM57.8149 68.28C59.0095 68.0027 60.1189 67.864 61.1429 67.864C62.1669 67.864 63.0309 67.896 63.7349 67.96V87.448C64.5669 87.768 65.1535 88.1307 65.4949 88.536L65.1749 91H57.8149L57.4949 88.536C57.7935 88.1307 58.3802 87.768 59.2549 87.448V71.832C58.5082 71.576 57.9215 71.2133 57.4949 70.744L57.8149 68.28ZM78.6244 89.656C77.1524 90.7227 75.4137 91.256 73.4084 91.256C71.4244 91.256 70.0377 90.84 69.2484 90.008C68.459 89.176 68.0644 87.8213 68.0644 85.944V78.552C67.3177 78.296 66.731 77.9333 66.3044 77.464L66.6244 75C67.819 74.7227 68.9284 74.584 69.9524 74.584C70.9764 74.584 71.8404 74.616 72.5444 74.68V84.888C72.5444 86.04 72.715 86.808 73.0564 87.192C73.419 87.5547 74.123 87.736 75.1684 87.736C76.2137 87.736 77.1844 87.3947 78.0804 86.712V78.552C77.3337 78.296 76.747 77.9333 76.3204 77.464L76.6404 75C77.835 74.7227 78.9444 74.584 79.9684 74.584C80.9924 74.584 81.8564 74.616 82.5604 74.68V87.16C83.307 87.3093 83.8937 87.4907 84.3204 87.704V90.232C83.0404 90.9147 81.4297 91.256 79.4884 91.256C78.955 90.872 78.667 90.3387 78.6244 89.656ZM94.2049 81.272C94.3542 80.696 94.6635 80.0347 95.1329 79.288L95.7089 78.392C95.0902 78.1147 94.6529 77.8053 94.3969 77.464L94.7169 75H101.757L102.077 77.464C101.65 78.04 100.786 78.4987 99.4849 78.84L96.6689 82.776L99.6769 87.224C100.85 87.544 101.661 87.9813 102.109 88.536L101.789 91H94.4289L94.1089 88.536C94.3222 88.2587 94.7169 87.9813 95.2929 87.704L94.4929 86.392C94.1302 85.7947 93.8529 85.1653 93.6609 84.504L93.5649 84.184H93.1169C92.9249 84.9307 92.6155 85.6453 92.1889 86.328L91.4209 87.544C92.1462 87.864 92.6369 88.1947 92.8929 88.536L92.5729 91H85.5329L85.2129 88.536C85.6182 88.0027 86.4182 87.5653 87.6129 87.224L90.6529 82.776L87.8369 78.84C86.5569 78.4987 85.6929 78.04 85.2449 77.464L85.5649 75H92.9249L93.2449 77.464C92.9462 77.8053 92.5835 78.072 92.1569 78.264L92.8289 79.224C93.2555 79.864 93.5649 80.5467 93.7569 81.272H94.2049ZM111.028 91.256C108.468 91.256 106.537 90.5733 105.236 89.208C103.956 87.8427 103.316 85.8587 103.316 83.256C103.316 81.6773 103.54 80.3227 103.988 79.192C104.436 78.04 105.044 77.1547 105.812 76.536C107.305 75.3413 109.044 74.744 111.028 74.744C113.012 74.744 114.526 75.256 115.572 76.28C116.638 77.2827 117.172 79.096 117.172 81.72C117.172 83.256 116.414 84.024 114.9 84.024H107.956C108.041 85.368 108.382 86.3173 108.98 86.872C109.598 87.4267 110.569 87.704 111.892 87.704C112.617 87.704 113.31 87.6187 113.972 87.448C114.633 87.2773 115.113 87.1067 115.412 86.936L115.86 86.68L116.82 89.24C116.692 89.3893 116.5 89.5813 116.244 89.816C116.009 90.0293 115.39 90.328 114.388 90.712C113.406 91.0747 112.286 91.256 111.028 91.256ZM113.044 81.176C113.086 80.8773 113.108 80.5147 113.108 80.088C113.108 79.6613 112.937 79.2133 112.596 78.744C112.254 78.2533 111.657 78.008 110.804 78.008C109.972 78.008 109.332 78.264 108.884 78.776C108.436 79.288 108.137 80.152 107.988 81.368L113.044 81.176Z" fill="white"/>
</svg>
